<mxfile host="app.diagrams.net" modified="2022-06-24T08:20:09.639Z" agent="5.0 (Macintosh; Intel Mac OS X 10_15_7) AppleWebKit/537.36 (KHTML, like Gecko) Chrome/91.0.4472.114 Safari/537.36" etag="WbN8Fzob0-aUUxdiefsk" version="20.0.3" type="github">
  <diagram id="RDSVlBt3DA3KgyY_rXkF" name="Page-1">
    <mxGraphModel dx="786" dy="423" grid="1" gridSize="10" guides="1" tooltips="1" connect="1" arrows="1" fold="1" page="1" pageScale="1" pageWidth="850" pageHeight="1100" math="0" shadow="0">
      <root>
        <mxCell id="0" />
        <mxCell id="1" parent="0" />
        <mxCell id="OpGdjMA8NbUbyLgdleTz-1" value="" style="rounded=1;whiteSpace=wrap;html=1;fillColor=#fff2cc;strokeColor=#d6b656;dashed=1;" vertex="1" parent="1">
          <mxGeometry x="110" y="90" width="430" height="120" as="geometry" />
        </mxCell>
        <mxCell id="OpGdjMA8NbUbyLgdleTz-2" value="" style="rounded=1;whiteSpace=wrap;html=1;fillColor=#fff2cc;strokeColor=#d6b656;dashed=1;" vertex="1" parent="1">
          <mxGeometry x="110" y="260" width="430" height="280" as="geometry" />
        </mxCell>
        <mxCell id="OpGdjMA8NbUbyLgdleTz-3" value="Embedded application server config ( tomcat or jetty )" style="rounded=1;whiteSpace=wrap;html=1;dashed=1;" vertex="1" parent="1">
          <mxGeometry x="160" y="120" width="140" height="70" as="geometry" />
        </mxCell>
        <mxCell id="OpGdjMA8NbUbyLgdleTz-4" value="Starter POM" style="text;html=1;strokeColor=none;fillColor=none;align=center;verticalAlign=middle;whiteSpace=wrap;rounded=0;dashed=1;" vertex="1" parent="1">
          <mxGeometry x="120" y="90" width="80" height="30" as="geometry" />
        </mxCell>
        <mxCell id="OpGdjMA8NbUbyLgdleTz-5" value="Other Maven Modules" style="rounded=1;whiteSpace=wrap;html=1;dashed=1;" vertex="1" parent="1">
          <mxGeometry x="370" y="120" width="130" height="70" as="geometry" />
        </mxCell>
        <mxCell id="OpGdjMA8NbUbyLgdleTz-6" value="Auditing &amp;amp; Health" style="rounded=1;whiteSpace=wrap;html=1;dashed=1;" vertex="1" parent="1">
          <mxGeometry x="130" y="300" width="120" height="60" as="geometry" />
        </mxCell>
        <mxCell id="OpGdjMA8NbUbyLgdleTz-7" value="Info ( CPU Usage )" style="rounded=1;whiteSpace=wrap;html=1;dashed=1;" vertex="1" parent="1">
          <mxGeometry x="263" y="300" width="120" height="60" as="geometry" />
        </mxCell>
        <mxCell id="OpGdjMA8NbUbyLgdleTz-8" value="Beans List ( /beans )" style="rounded=1;whiteSpace=wrap;html=1;dashed=1;" vertex="1" parent="1">
          <mxGeometry x="400" y="300" width="120" height="60" as="geometry" />
        </mxCell>
        <mxCell id="OpGdjMA8NbUbyLgdleTz-9" value="Mappings List" style="rounded=1;whiteSpace=wrap;html=1;dashed=1;" vertex="1" parent="1">
          <mxGeometry x="130" y="380" width="120" height="60" as="geometry" />
        </mxCell>
        <mxCell id="OpGdjMA8NbUbyLgdleTz-10" value="Config Props ( /env )" style="rounded=1;whiteSpace=wrap;html=1;dashed=1;" vertex="1" parent="1">
          <mxGeometry x="263" y="380" width="120" height="60" as="geometry" />
        </mxCell>
        <mxCell id="OpGdjMA8NbUbyLgdleTz-11" value="HTTP Trace ( HTTP Hits )" style="rounded=1;whiteSpace=wrap;html=1;dashed=1;" vertex="1" parent="1">
          <mxGeometry x="400" y="380" width="120" height="60" as="geometry" />
        </mxCell>
        <mxCell id="OpGdjMA8NbUbyLgdleTz-12" value="Heap Dump" style="rounded=1;whiteSpace=wrap;html=1;dashed=1;" vertex="1" parent="1">
          <mxGeometry x="130" y="460" width="120" height="60" as="geometry" />
        </mxCell>
        <mxCell id="OpGdjMA8NbUbyLgdleTz-13" value="ShutDown" style="rounded=1;whiteSpace=wrap;html=1;dashed=1;" vertex="1" parent="1">
          <mxGeometry x="263" y="460" width="120" height="60" as="geometry" />
        </mxCell>
        <mxCell id="OpGdjMA8NbUbyLgdleTz-14" value="ThreadDump" style="rounded=1;whiteSpace=wrap;html=1;dashed=1;" vertex="1" parent="1">
          <mxGeometry x="400" y="460" width="120" height="60" as="geometry" />
        </mxCell>
        <mxCell id="OpGdjMA8NbUbyLgdleTz-15" value="Actuator ( for Application Monitoring )" style="text;html=1;strokeColor=none;fillColor=none;align=center;verticalAlign=middle;whiteSpace=wrap;rounded=0;dashed=1;" vertex="1" parent="1">
          <mxGeometry x="120" y="260" width="240" height="30" as="geometry" />
        </mxCell>
        <mxCell id="OpGdjMA8NbUbyLgdleTz-16" value="" style="rounded=1;whiteSpace=wrap;html=1;fillColor=#fff2cc;strokeColor=#d6b656;dashed=1;" vertex="1" parent="1">
          <mxGeometry x="108" y="570" width="430" height="120" as="geometry" />
        </mxCell>
        <mxCell id="OpGdjMA8NbUbyLgdleTz-17" value="Run Command" style="rounded=1;whiteSpace=wrap;html=1;dashed=1;" vertex="1" parent="1">
          <mxGeometry x="130" y="600" width="120" height="60" as="geometry" />
        </mxCell>
        <mxCell id="OpGdjMA8NbUbyLgdleTz-18" value="CLI" style="text;html=1;strokeColor=none;fillColor=none;align=center;verticalAlign=middle;whiteSpace=wrap;rounded=0;dashed=1;" vertex="1" parent="1">
          <mxGeometry x="120" y="570" width="60" height="30" as="geometry" />
        </mxCell>
        <mxCell id="OpGdjMA8NbUbyLgdleTz-19" value="Install/Uninstall Command" style="rounded=1;whiteSpace=wrap;html=1;dashed=1;" vertex="1" parent="1">
          <mxGeometry x="265" y="600" width="120" height="60" as="geometry" />
        </mxCell>
        <mxCell id="OpGdjMA8NbUbyLgdleTz-20" value="Other Commands" style="rounded=1;whiteSpace=wrap;html=1;dashed=1;" vertex="1" parent="1">
          <mxGeometry x="400" y="600" width="120" height="60" as="geometry" />
        </mxCell>
        <mxCell id="OpGdjMA8NbUbyLgdleTz-21" value="" style="rounded=1;whiteSpace=wrap;html=1;fillColor=#fff2cc;strokeColor=#d6b656;dashed=1;" vertex="1" parent="1">
          <mxGeometry x="108" y="730" width="430" height="120" as="geometry" />
        </mxCell>
        <mxCell id="OpGdjMA8NbUbyLgdleTz-22" value="@ComponentScan" style="rounded=1;whiteSpace=wrap;html=1;dashed=1;" vertex="1" parent="1">
          <mxGeometry x="130" y="760" width="120" height="60" as="geometry" />
        </mxCell>
        <mxCell id="OpGdjMA8NbUbyLgdleTz-23" value="Auto-Configuration" style="text;html=1;strokeColor=none;fillColor=none;align=center;verticalAlign=middle;whiteSpace=wrap;rounded=0;dashed=1;" vertex="1" parent="1">
          <mxGeometry x="120" y="730" width="120" height="30" as="geometry" />
        </mxCell>
        <mxCell id="OpGdjMA8NbUbyLgdleTz-26" value="@EnableAutoConfiguration" style="rounded=1;whiteSpace=wrap;html=1;dashed=1;" vertex="1" parent="1">
          <mxGeometry x="263" y="760" width="155" height="60" as="geometry" />
        </mxCell>
        <mxCell id="OpGdjMA8NbUbyLgdleTz-27" value="@Configuration" style="rounded=1;whiteSpace=wrap;html=1;dashed=1;" vertex="1" parent="1">
          <mxGeometry x="430" y="760" width="100" height="60" as="geometry" />
        </mxCell>
      </root>
    </mxGraphModel>
  </diagram>
</mxfile>
